<svg width="512" height="512" viewBox="0 0 512 512" fill="none" xmlns="http://www.w3.org/2000/svg">
<path d="M383.979 0.10653L317.585 0C242.993 0 194.789 49.4566 194.789 126.004V184.1H128.033C122.264 184.1 117.593 188.777 117.593 194.545V278.72C117.593 284.489 122.269 289.16 128.033 289.16H194.789V501.56C194.789 507.329 199.46 512 205.229 512H292.327C298.096 512 302.767 507.323 302.767 501.56V289.16H380.821C386.589 289.16 391.261 284.489 391.261 278.72L391.293 194.545C391.293 191.776 390.19 189.123 388.235 187.163C386.28 185.203 383.617 184.1 380.847 184.1H302.767V134.851C302.767 111.18 308.408 99.1636 339.242 99.1636L383.969 99.1476C389.732 99.1476 394.403 94.471 394.403 88.7077V10.5465C394.403 4.78853 389.737 0.117183 383.979 0.10653Z" fill="white"/>
</svg>
