<svg width="15" height="14" viewBox="0 0 15 14" fill="none" xmlns="http://www.w3.org/2000/svg">
<g clip-path="url(#clip0)">
<path d="M8.31622 13.9077C8.2579 13.9172 8.19937 13.926 8.14062 13.934C8.19937 13.926 8.2579 13.9172 8.31622 13.9077Z" fill="white" fill-opacity="0.85"/>
<path d="M8.45775 13.8838C8.42951 13.889 8.40128 13.8937 8.37305 13.8986C8.40128 13.8937 8.42951 13.889 8.45775 13.8838Z" fill="white" fill-opacity="0.85"/>
<path d="M7.98512 13.9545C7.91687 13.9622 7.84819 13.969 7.7793 13.9748C7.84819 13.969 7.91687 13.9622 7.98512 13.9545Z" fill="white" fill-opacity="0.85"/>
<path d="M8.11948 13.9385C8.08627 13.9429 8.05285 13.947 8.01953 13.9509C8.05285 13.947 8.08627 13.9429 8.11948 13.9385Z" fill="white" fill-opacity="0.85"/>
<path d="M8.64712 13.8462C8.62224 13.8515 8.59725 13.8568 8.57227 13.8619C8.59725 13.8568 8.62224 13.8515 8.64712 13.8462Z" fill="white" fill-opacity="0.85"/>
<path d="M9.12091 13.7289C9.10079 13.7346 9.08067 13.74 9.06055 13.7456C9.08067 13.74 9.10079 13.7346 9.12091 13.7289Z" fill="white" fill-opacity="0.85"/>
<path d="M8.97788 13.7676C8.95603 13.7733 8.93407 13.7792 8.91211 13.7847C8.93407 13.7792 8.95603 13.7734 8.97788 13.7676Z" fill="white" fill-opacity="0.85"/>
<path d="M8.79058 13.8154C8.76743 13.8208 8.74407 13.8259 8.7207 13.8311C8.74407 13.8259 8.76743 13.8208 8.79058 13.8154Z" fill="white" fill-opacity="0.85"/>
<path d="M7.77667 13.975C7.73982 13.9781 7.70297 13.9809 7.66602 13.9833C7.70297 13.9809 7.73982 13.9781 7.77667 13.975Z" fill="white" fill-opacity="0.85"/>
<path d="M14.1875 7C14.1875 3.1346 11.0529 0 7.1875 0C3.3221 0 0.1875 3.1346 0.1875 7C0.1875 10.8654 3.3221 14 7.1875 14C7.22862 14 7.26953 13.9991 7.31055 13.9984V8.54919H5.80664V6.79652H7.31055V5.50677C7.31055 4.01099 8.22368 3.19687 9.55797 3.19687C10.1969 3.19687 10.7461 3.24451 10.9062 3.26576V4.82906H9.98618C9.26028 4.82906 9.11972 5.17406 9.11972 5.68024V6.79652H10.8554L10.6292 8.54919H9.11972V13.7296C12.0456 12.8908 14.1875 10.1952 14.1875 7Z" fill="white" fill-opacity="0.85"/>
<path d="M7.64908 13.984C7.57623 13.9887 7.50307 13.9924 7.42969 13.9949C7.50307 13.9924 7.57623 13.9887 7.64908 13.984Z" fill="white" fill-opacity="0.85"/>
<path d="M7.42676 13.9955C7.38809 13.9968 7.34932 13.9977 7.31055 13.9984C7.34932 13.9977 7.38809 13.9968 7.42676 13.9955Z" fill="white" fill-opacity="0.85"/>
</g>
<defs>
<clipPath id="clip0">
<rect width="14" height="14" fill="white" transform="translate(0.1875)"/>
</clipPath>
</defs>
</svg>
