<svg width="15" height="14" viewBox="0 0 15 14" fill="none" xmlns="http://www.w3.org/2000/svg">
<path d="M2.9414 7.51344C2.58382 8.21635 2.98982 8.55235 3.91615 9.12635C4.70365 9.61285 5.79157 9.79077 6.4904 9.86194C6.20399 10.1373 7.51649 8.87494 3.73649 12.5108C2.93499 13.2791 4.22532 14.5117 5.02624 13.7598L7.19449 11.6685C8.02457 12.4671 8.82024 13.2324 9.36274 13.7627C10.1642 14.5175 11.454 13.2954 10.6612 12.5138C10.6017 12.4572 7.72299 9.69569 7.89857 9.86485C8.60615 9.79369 9.67774 9.60527 10.4559 9.12927L10.4553 9.12869C11.3817 8.55177 11.7877 8.21635 11.4353 7.51344C11.2224 7.11444 10.6484 6.78077 9.88424 7.35769C9.88424 7.35769 8.85232 8.1481 7.18807 8.1481C5.52324 8.1481 4.4919 7.35769 4.4919 7.35769C3.72832 6.77786 3.15199 7.11444 2.9414 7.51344Z" fill="white" fill-opacity="0.85"/>
<path d="M7.18804 7.08283C9.21687 7.08283 10.8735 5.49733 10.8735 3.5455C10.8735 1.5855 9.21687 0 7.18804 0C5.15862 0 3.50195 1.5855 3.50195 3.5455C3.50195 5.49733 5.15862 7.08283 7.18804 7.08283ZM7.18804 1.79608C8.18495 1.79608 8.99812 2.57833 8.99812 3.5455C8.99812 4.5045 8.18495 5.28675 7.18804 5.28675C6.19112 5.28675 5.37795 4.5045 5.37795 3.5455C5.37737 2.57775 6.19054 1.79608 7.18804 1.79608Z" fill="white" fill-opacity="0.85"/>
</svg>
