<svg width="512" height="512" viewBox="0 0 512 512" fill="none" xmlns="http://www.w3.org/2000/svg">
<g clip-path="url(#clip0)">
<path d="M255.998 0C185.407 0 128 57.4071 128 127.998C128 198.589 185.407 255.996 255.998 255.996C326.589 255.996 383.996 198.589 383.996 127.998C383.996 57.4071 326.589 0 255.998 0ZM255.998 191.997C220.703 191.997 191.999 163.293 191.999 127.998C191.999 92.7026 220.703 63.999 255.998 63.999C291.293 63.999 319.997 92.7026 319.997 127.998C319.997 163.293 291.293 191.997 255.998 191.997Z" fill="white"/>
<path d="M425.723 252.444C413.212 239.932 392.988 239.932 380.476 252.444C311.869 321.051 200.191 321.051 131.552 252.444C119.04 239.932 98.8166 239.932 86.3048 252.444C73.7929 264.956 73.7929 285.18 86.3048 297.723C126.112 337.531 176.575 360.218 228.607 366.138L137.376 457.369C124.864 469.881 124.864 490.104 137.376 502.616C149.888 515.128 170.111 515.128 182.623 502.616L255.998 429.241L329.373 502.616C335.613 508.856 343.805 511.992 351.997 511.992C360.188 511.992 368.38 508.856 374.62 502.616C387.132 490.104 387.132 469.881 374.62 457.369L283.39 366.138C335.421 360.218 385.884 337.531 425.691 297.723C438.203 285.212 438.203 264.956 425.723 252.444Z" fill="white"/>
</g>
<defs>
<clipPath id="clip0">
<rect width="512" height="512" fill="white"/>
</clipPath>
</defs>
</svg>
