<svg width="15" height="14" viewBox="0 0 15 14" fill="none" xmlns="http://www.w3.org/2000/svg">
<g clip-path="url(#clip0)">
<path d="M14.0608 10.1316C14.0231 10.0686 13.7904 9.56278 12.6703 8.5232C11.4977 7.43462 11.6552 7.61138 13.0676 5.72912C13.9277 4.58278 14.2716 3.88273 14.164 3.58346C14.0616 3.29818 13.429 3.37344 13.429 3.37344L11.3253 3.38569C11.3253 3.38569 11.1695 3.36469 11.0532 3.43382C10.9403 3.50207 10.8676 3.65959 10.8676 3.65959C10.8676 3.65959 10.5343 4.5469 10.0897 5.30121C9.15252 6.89295 8.77712 6.97696 8.62399 6.87808C8.26783 6.64793 8.35709 5.95226 8.35709 5.45872C8.35709 3.91598 8.59073 3.27281 7.90118 3.10655C7.67192 3.05142 7.5039 3.01466 6.91848 3.00854C6.16768 3.00066 5.53151 3.01116 5.17186 3.18705C4.93209 3.30431 4.74745 3.56595 4.86033 3.58083C4.99947 3.59921 5.31449 3.66571 5.48163 3.89323C5.69777 4.18638 5.68989 4.84617 5.68989 4.84617C5.68989 4.84617 5.81415 6.66193 5.40025 6.8877C5.11585 7.04259 4.72645 6.72669 3.89076 5.28196C3.46286 4.54253 3.13908 3.72434 3.13908 3.72434C3.13908 3.72434 3.07695 3.57208 2.96582 3.4907C2.83106 3.39182 2.64205 3.36031 2.64205 3.36031L0.641651 3.37257C0.641651 3.37257 0.341504 3.38132 0.231246 3.5117C0.133238 3.62808 0.22337 3.86785 0.22337 3.86785C0.22337 3.86785 1.78973 7.53175 3.56261 9.37901C5.18936 11.0723 7.03574 10.9611 7.03574 10.9611H7.8723C7.8723 10.9611 8.1252 10.9331 8.25383 10.794C8.37284 10.6662 8.36847 10.4265 8.36847 10.4265C8.36847 10.4265 8.35184 9.30376 8.87338 9.13837C9.38704 8.97561 10.0468 10.2234 10.746 10.7039C11.2746 11.067 11.6762 10.9874 11.6762 10.9874L13.5462 10.9611C13.5462 10.9611 14.5245 10.9008 14.0608 10.1316Z" fill="white" fill-opacity="0.85"/>
</g>
<defs>
<clipPath id="clip0">
<rect width="14" height="14" fill="white" transform="translate(0.1875)"/>
</clipPath>
</defs>
</svg>
