<svg width="78" height="50" viewBox="0 0 78 50" fill="none" xmlns="http://www.w3.org/2000/svg">
<g filter="url(#filter0_d)">
<rect x="4" y="4" width="68" height="40" rx="20" fill="url(#paint0_linear)"/>
</g>
<g clip-path="url(#clip0)">
<path d="M49.7752 29.0921C49.708 28.9796 49.2924 28.0764 47.2922 26.22C45.1983 24.2761 45.4796 24.5918 48.0016 21.2306C49.5377 19.1835 50.1518 17.9335 49.9596 17.399C49.7768 16.8896 48.647 17.024 48.647 17.024L44.8905 17.0459C44.8905 17.0459 44.6123 17.0084 44.4045 17.1318C44.2029 17.2537 44.0732 17.535 44.0732 17.535C44.0732 17.535 43.4779 19.1195 42.6841 20.4665C41.0105 23.3089 40.3401 23.4589 40.0667 23.2823C39.4307 22.8713 39.5901 21.629 39.5901 20.7477C39.5901 17.9928 40.0073 16.8443 38.776 16.5474C38.3666 16.449 38.0665 16.3833 37.0212 16.3724C35.6804 16.3583 34.5444 16.3771 33.9022 16.6912C33.474 16.9006 33.1443 17.3678 33.3459 17.3943C33.5943 17.4272 34.1569 17.5459 34.4553 17.9522C34.8413 18.4757 34.8272 19.6539 34.8272 19.6539C34.8272 19.6539 35.0491 22.8963 34.31 23.2995C33.8022 23.5761 33.1068 23.012 31.6145 20.4321C30.8504 19.1117 30.2722 17.6506 30.2722 17.6506C30.2722 17.6506 30.1613 17.3787 29.9628 17.2334C29.7222 17.0568 29.3847 17.0006 29.3847 17.0006L25.8125 17.0224C25.8125 17.0224 25.2765 17.0381 25.0797 17.2709C24.9046 17.4787 25.0656 17.9069 25.0656 17.9069C25.0656 17.9069 27.8627 24.4496 31.0285 27.7482C33.9334 30.7719 37.2305 30.5735 37.2305 30.5735H38.7244C38.7244 30.5735 39.176 30.5235 39.4057 30.275C39.6182 30.0469 39.6104 29.6187 39.6104 29.6187C39.6104 29.6187 39.5807 27.6139 40.512 27.3185C41.4293 27.0279 42.6075 29.2562 43.856 30.114C44.7998 30.7625 45.5171 30.6203 45.5171 30.6203L48.8564 30.5735C48.8564 30.5735 50.6034 30.4656 49.7752 29.0921Z" fill="white"/>
</g>
<defs>
<filter id="filter0_d" x="0" y="0" width="78" height="50" filterUnits="userSpaceOnUse" color-interpolation-filters="sRGB">
<feFlood flood-opacity="0" result="BackgroundImageFix"/>
<feColorMatrix in="SourceAlpha" type="matrix" values="0 0 0 0 0 0 0 0 0 0 0 0 0 0 0 0 0 0 127 0"/>
<feOffset dx="1" dy="1"/>
<feGaussianBlur stdDeviation="2.5"/>
<feColorMatrix type="matrix" values="0 0 0 0 0 0 0 0 0 0 0 0 0 0 0 0 0 0 0.1 0"/>
<feBlend mode="normal" in2="BackgroundImageFix" result="effect1_dropShadow"/>
<feBlend mode="normal" in="SourceGraphic" in2="effect1_dropShadow" result="shape"/>
</filter>
<linearGradient id="paint0_linear" x1="12" y1="6.5" x2="65.5" y2="41" gradientUnits="userSpaceOnUse">
<stop stop-color="#2E6AB5"/>
<stop offset="1" stop-color="#0B3F81"/>
</linearGradient>
<clipPath id="clip0">
<rect width="25" height="25" fill="white" transform="translate(25 11)"/>
</clipPath>
</defs>
</svg>
