<svg width="512" height="512" viewBox="0 0 512 512" fill="none" xmlns="http://www.w3.org/2000/svg">
<path d="M501.451 132.175C495.551 110.209 478.257 92.8932 456.326 86.9784C416.26 76 255.994 76 255.994 76C255.994 76 95.7346 76 55.6689 86.5621C34.1594 92.4707 16.4438 110.212 10.5438 132.175C0 172.295 0 255.5 0 255.5C0 255.5 0 339.124 10.5438 378.825C16.45 400.788 33.7376 418.104 55.672 424.019C96.1564 435 256 435 256 435C256 435 416.26 435 456.326 424.438C478.26 418.526 495.551 401.211 501.457 379.248C511.998 339.124 511.998 255.922 511.998 255.922C511.998 255.922 512.42 172.295 501.451 132.175V132.175ZM204.969 332.367V178.633L338.238 255.5L204.969 332.367Z" fill="white"/>
</svg>
