<svg width="9" height="9" viewBox="0 0 9 9" fill="none" xmlns="http://www.w3.org/2000/svg">
<path d="M1.13543 0.186912L4.49984 3.55132L7.85041 0.200757C7.90912 0.138258 7.97986 0.0882601 8.05837 0.0537628C8.13688 0.0192656 8.22155 0.000979102 8.3073 0C8.4909 0 8.66698 0.0729349 8.79681 0.20276C8.92663 0.332585 8.99957 0.508665 8.99957 0.692266C9.00118 0.777139 8.98543 0.861446 8.95329 0.940015C8.92115 1.01858 8.87329 1.08975 8.81265 1.14916L5.42747 4.49973L8.81265 7.8849C8.92675 7.99653 8.99365 8.14768 8.99957 8.30719C8.99957 8.49079 8.92663 8.66687 8.79681 8.79669C8.66698 8.92652 8.4909 8.99945 8.3073 8.99945C8.21907 9.00311 8.13105 8.98839 8.04882 8.95621C7.96659 8.92403 7.89195 8.87511 7.82964 8.81254L4.49984 5.44813L1.14235 8.80562C1.08386 8.86603 1.01398 8.91427 0.936749 8.94754C0.859519 8.9808 0.776464 8.99845 0.692378 8.99945C0.508778 8.99945 0.332698 8.92652 0.202873 8.79669C0.0730475 8.66687 0.000112636 8.49079 0.000112636 8.30719C-0.00150138 8.22231 0.0142456 8.13801 0.0463872 8.05944C0.0785287 7.98087 0.126387 7.9097 0.187024 7.85029L3.5722 4.49973L0.187024 1.11455C0.0729286 1.00293 0.00602432 0.851772 0.000112636 0.692266C0.000112636 0.508665 0.0730475 0.332585 0.202873 0.20276C0.332698 0.0729349 0.508778 0 0.692378 0C0.858522 0.0020768 1.01774 0.0692265 1.13543 0.186912Z" fill="#BDBDBD"/>
</svg>
