<svg width="30" height="30" viewBox="0 0 30 30" fill="none" xmlns="http://www.w3.org/2000/svg">
<g clip-path="url(#clip0)">
<path d="M15 30C23.2843 30 30 23.2843 30 15C30 6.71573 23.2843 0 15 0C6.71573 0 0 6.71573 0 15C0 23.2843 6.71573 30 15 30Z" fill="#FFD93B"/>
<path d="M29.9288 14.9998C29.9288 23.2873 23.2116 29.9998 14.9288 29.9998C10.2131 29.9998 6.00376 27.8248 3.2522 24.417C5.82563 26.4982 9.1022 27.7404 12.6694 27.7404C20.9522 27.7404 27.6694 21.0279 27.6694 12.7404C27.6694 9.17324 26.4272 5.89668 24.3459 3.32324C27.7491 6.0748 29.9288 10.2842 29.9288 14.9998Z" fill="#F4C534"/>
<path d="M26.7347 13.577C26.7347 16.2582 24.2822 18.4332 21.2485 18.4332C18.2231 18.4332 15.7622 16.2582 15.7622 13.577C15.7622 10.8957 18.2231 8.7207 21.2485 8.7207C24.2822 8.7207 26.7347 10.8957 26.7347 13.577Z" fill="#F4C534"/>
<path d="M21.248 17.4037C23.637 17.4037 25.5736 15.6904 25.5736 13.5769C25.5736 11.4634 23.637 9.75 21.248 9.75C18.859 9.75 16.9224 11.4634 16.9224 13.5769C16.9224 15.6904 18.859 17.4037 21.248 17.4037Z" fill="white"/>
<path d="M21.8833 13.6754C21.8833 14.7957 20.9796 15.6995 19.8593 15.6995C18.739 15.6995 17.8352 14.7957 17.8352 13.6754C17.8352 12.5626 18.739 11.6514 19.8593 11.6514C20.9796 11.6514 21.8833 12.5626 21.8833 13.6754Z" fill="#3E4347"/>
<path d="M20.8239 12.711C20.5936 12.4808 20.2817 12.4193 20.1272 12.5738C19.9727 12.7283 20.0341 13.0402 20.2644 13.2705C20.4947 13.5008 20.8066 13.5623 20.9611 13.4078C21.1156 13.2533 21.0542 12.9413 20.8239 12.711Z" fill="white"/>
<path d="M22.2431 8.14187C19.9284 9.37656 17.6278 11.0059 15.4275 12.9897C17.055 10.1359 18.7922 7.70968 20.7169 5.97343C21.0019 5.71093 21.3647 5.60312 21.7228 5.63406C22.0491 5.66218 22.3716 5.81406 22.6116 6.08125C23.1872 6.7225 23.0081 7.74062 22.2431 8.14187Z" fill="#3E4347"/>
<path d="M3.26562 13.577C3.26562 16.2582 5.71813 18.4332 8.75188 18.4332C11.7772 18.4332 14.2381 16.2582 14.2381 13.577C14.2381 10.8957 11.7772 8.7207 8.75188 8.7207C5.71813 8.7207 3.26562 10.8957 3.26562 13.577Z" fill="#F4C534"/>
<path d="M8.75141 17.4037C11.1404 17.4037 13.077 15.6904 13.077 13.5769C13.077 11.4634 11.1404 9.75 8.75141 9.75C6.36243 9.75 4.42578 11.4634 4.42578 13.5769C4.42578 15.6904 6.36243 17.4037 8.75141 17.4037Z" fill="white"/>
<path d="M12.1646 13.6754C12.1646 14.7957 11.2608 15.6995 10.1405 15.6995C9.02021 15.6995 8.11646 14.7957 8.11646 13.6754C8.11646 12.5626 9.02021 11.6514 10.1405 11.6514C11.2608 11.6514 12.1646 12.5626 12.1646 13.6754Z" fill="#3E4347"/>
<path d="M11.1071 12.7101C10.8768 12.4798 10.5649 12.4183 10.4104 12.5728C10.2559 12.7273 10.3173 13.0393 10.5476 13.2696C10.7779 13.4998 11.0898 13.5613 11.2443 13.4068C11.3988 13.2523 11.3374 12.9403 11.1071 12.7101Z" fill="white"/>
<path d="M7.75657 8.14187C10.0722 9.37656 12.3719 11.0059 14.5722 12.9897C12.9447 10.1359 11.2075 7.70968 9.28282 5.97343C8.99782 5.71093 8.63594 5.60312 8.27688 5.63406C7.95063 5.66218 7.62813 5.81406 7.38813 6.08125C6.8125 6.7225 6.99157 7.74062 7.75657 8.14187Z" fill="#3E4347"/>
<path d="M19.4377 22.6797C17.0264 20.5834 12.2883 22.9525 9.23858 24.895C8.85515 25.1425 8.45483 24.6306 8.76983 24.3072C16.822 16.0506 19.2933 19.7575 20.0433 22.2793C20.1455 22.6281 19.7189 22.9187 19.4377 22.6797Z" fill="#3E4347"/>
</g>
<defs>
<clipPath id="clip0">
<rect width="30" height="30" fill="white"/>
</clipPath>
</defs>
</svg>
