<svg width="30" height="30" viewBox="0 0 30 30" fill="none" xmlns="http://www.w3.org/2000/svg">
<g clip-path="url(#clip0)">
<path d="M15 30C23.2843 30 30 23.2843 30 15C30 6.71573 23.2843 0 15 0C6.71573 0 0 6.71573 0 15C0 23.2843 6.71573 30 15 30Z" fill="#FFD93B"/>
<path d="M15 24.8764C10.9706 24.8764 7.4297 22.2945 6.18939 18.4517C6.07033 18.0823 6.27283 17.6858 6.6422 17.5667C7.01345 17.4467 7.40814 17.6501 7.5272 18.0195C8.58002 21.2792 11.5828 23.4701 15 23.4701C18.4172 23.4701 21.42 21.2801 22.4728 18.0195C22.5919 17.6501 22.9866 17.4467 23.3578 17.5667C23.7272 17.6858 23.9297 18.0823 23.8106 18.4517C22.5703 22.2945 19.0294 24.8764 15 24.8764Z" fill="#3E4347"/>
<path d="M30.0003 14.9998C30.0003 23.2873 23.2831 29.9998 15.0003 29.9998C10.2847 29.9998 6.07529 27.8248 3.32373 24.417C5.89717 26.4982 9.17373 27.7404 12.7409 27.7404C21.0237 27.7404 27.7409 21.0279 27.7409 12.7404C27.7409 9.17324 26.4987 5.89668 24.4175 3.32324C27.8206 6.0748 30.0003 10.2842 30.0003 14.9998Z" fill="#F4C534"/>
<path d="M12.5058 12.5495C11.8008 11.5876 10.5295 10.9482 9.08013 10.9482C7.6242 10.9548 6.35295 11.5941 5.64795 12.556C5.68076 10.6913 7.20326 9.18945 9.08013 9.18945C10.9439 9.18945 12.4729 10.6848 12.5058 12.5495Z" fill="#3E4347"/>
<path d="M24.3522 12.5495C23.6472 11.5876 22.3759 10.9482 20.9266 10.9482C19.4706 10.9548 18.1994 11.5941 17.4944 12.556C17.5272 10.6913 19.0497 9.18945 20.9266 9.18945C22.7913 9.18945 24.3194 10.6848 24.3522 12.5495Z" fill="#3E4347"/>
</g>
<defs>
<clipPath id="clip0">
<rect width="30" height="30" fill="white"/>
</clipPath>
</defs>
</svg>
