<svg width="30" height="30" viewBox="0 0 30 30" fill="none" xmlns="http://www.w3.org/2000/svg">
<g clip-path="url(#clip0)">
<path d="M15 30C23.2843 30 30 23.2843 30 15C30 6.71573 23.2843 0 15 0C6.71573 0 0 6.71573 0 15C0 23.2843 6.71573 30 15 30Z" fill="#FFD93B"/>
<path d="M30.0003 14.9998C30.0003 23.2873 23.2831 29.9998 15.0003 29.9998C10.2847 29.9998 6.07529 27.8248 3.32373 24.417C5.89717 26.4982 9.17373 27.7404 12.7409 27.7404C21.0237 27.7404 27.7409 21.0279 27.7409 12.7404C27.7409 9.17324 26.4987 5.89668 24.4175 3.32324C27.8206 6.0748 30.0003 10.2842 30.0003 14.9998Z" fill="#F4C534"/>
<path d="M19.4786 22.5475C19.4786 22.9854 19.1289 23.3285 18.6977 23.3285H11.3036C10.8724 23.3285 10.5227 22.9844 10.5227 22.5475C10.5227 22.1163 10.8724 21.7666 11.3036 21.7666H18.6977C19.128 21.7666 19.4786 22.1163 19.4786 22.5475Z" fill="#3E4347"/>
<path d="M6.5517 15.3333C6.91827 15.1176 8.00295 16.2802 9.70639 16.3439C11.4698 16.4095 12.4945 15.1176 12.8611 15.3333C13.3176 15.4898 12.6951 18.4711 9.70639 18.4824C6.71858 18.4711 6.09514 15.4898 6.5517 15.3333Z" fill="#3E4347"/>
<path d="M5.84839 14.0226C5.50808 13.9682 5.27558 13.6476 5.33089 13.3063C5.38621 12.966 5.70121 12.7326 6.04714 12.7888C9.56089 13.3532 10.6287 10.8435 10.639 10.8182C10.7684 10.4985 11.1321 10.3448 11.4537 10.4751C11.7734 10.6054 11.9271 10.9701 11.7968 11.2898C11.0918 13.0166 8.87745 14.5091 5.84839 14.0226Z" fill="#E9B02C"/>
<path d="M23.4486 15.3333C23.082 15.1176 21.9973 16.2802 20.2939 16.3439C18.5304 16.4095 17.5058 15.1176 17.1392 15.3333C16.6826 15.4898 17.3051 18.4711 20.2939 18.4824C23.2817 18.4711 23.9051 15.4898 23.4486 15.3333Z" fill="#3E4347"/>
<path d="M18.2031 11.288C18.0728 10.9683 18.2266 10.6036 18.5462 10.4733C18.865 10.343 19.2287 10.4958 19.36 10.8136C19.4069 10.9261 20.4803 13.3458 23.9528 12.788C24.2969 12.7317 24.6147 12.9652 24.669 13.3055C24.7234 13.6467 24.4919 13.9674 24.1515 14.0217C21.144 14.5055 18.9137 13.0308 18.2031 11.288Z" fill="#E9B02C"/>
</g>
<defs>
<clipPath id="clip0">
<rect width="30" height="30" fill="white"/>
</clipPath>
</defs>
</svg>
