<svg width="30" height="30" viewBox="0 0 30 30" fill="none" xmlns="http://www.w3.org/2000/svg">
<g clip-path="url(#clip0)">
<path d="M15 30C23.2843 30 30 23.2843 30 15C30 6.71573 23.2843 0 15 0C6.71573 0 0 6.71573 0 15C0 23.2843 6.71573 30 15 30Z" fill="#FFD93B"/>
<path d="M30.0003 14.9998C30.0003 23.2873 23.2831 29.9998 15.0003 29.9998C10.2847 29.9998 6.07529 27.8248 3.32373 24.417C5.89717 26.4982 9.17373 27.7404 12.7409 27.7404C21.0237 27.7404 27.7409 21.0279 27.7409 12.7404C27.7409 9.17324 26.4987 5.89668 24.4175 3.32324C27.8206 6.0748 30.0003 10.2842 30.0003 14.9998Z" fill="#F4C534"/>
<path d="M15.0004 25.9921C16.4507 25.9921 17.6264 24.8164 17.6264 23.3662C17.6264 21.9159 16.4507 20.7402 15.0004 20.7402C13.5502 20.7402 12.3745 21.9159 12.3745 23.3662C12.3745 24.8164 13.5502 25.9921 15.0004 25.9921Z" fill="#3E4347"/>
<path d="M23.4394 14.6569C23.4394 16.5281 21.9112 18.0487 20.04 18.0487C18.1687 18.0487 16.6406 16.5281 16.6406 14.6569C16.6406 12.7781 18.1687 11.25 20.04 11.25C21.9112 11.25 23.4394 12.7781 23.4394 14.6569Z" fill="white"/>
<path d="M20.0375 16.2264C20.9058 16.2264 21.6097 15.5225 21.6097 14.6542C21.6097 13.7859 20.9058 13.082 20.0375 13.082C19.1692 13.082 18.4653 13.7859 18.4653 14.6542C18.4653 15.5225 19.1692 16.2264 20.0375 16.2264Z" fill="#3E4347"/>
<path d="M20.8877 14.5042C20.7471 14.597 20.524 14.523 20.3955 14.3373C20.2671 14.1517 20.2821 13.9258 20.4227 13.833C20.5634 13.7402 20.7865 13.8142 20.9149 13.9998C21.0377 14.1855 21.0293 14.4114 20.8877 14.5042Z" fill="#5A5F63"/>
<path d="M24.2917 10.3428C24.4023 10.895 24.3751 11.4312 24.2317 11.9309C23.5661 10.0765 21.647 8.92527 19.6501 9.28527L19.6258 9.28996C18.9105 9.42215 18.527 8.48653 19.1495 8.10496C19.6445 7.80121 20.2342 7.61465 20.8755 7.59684C22.5105 7.55371 23.9739 8.7434 24.2917 10.3428Z" fill="#E9B02C"/>
<path d="M6.56079 14.6569C6.56079 16.5281 8.08892 18.0487 9.96017 18.0487C11.8314 18.0487 13.3595 16.5281 13.3595 14.6569C13.3595 12.7781 11.8314 11.25 9.96017 11.25C8.08892 11.25 6.56079 12.7781 6.56079 14.6569Z" fill="white"/>
<path d="M9.96257 16.2264C10.8309 16.2264 11.5348 15.5225 11.5348 14.6542C11.5348 13.7859 10.8309 13.082 9.96257 13.082C9.09427 13.082 8.39038 13.7859 8.39038 14.6542C8.39038 15.5225 9.09427 16.2264 9.96257 16.2264Z" fill="#3E4347"/>
<path d="M9.11294 14.5042C9.25356 14.597 9.47669 14.523 9.60513 14.3373C9.73356 14.1517 9.71856 13.9258 9.57794 13.833C9.43731 13.7402 9.21419 13.8142 9.08575 13.9998C8.96294 14.1855 8.97138 14.4114 9.11294 14.5042Z" fill="#5A5F63"/>
<path d="M5.7082 10.3428C5.59758 10.895 5.62476 11.4321 5.7682 11.9309C6.43383 10.0765 8.35289 8.92527 10.3498 9.28527L10.3741 9.28996C11.0894 9.42215 11.4729 8.48653 10.8504 8.10496C10.3554 7.80121 9.7657 7.61465 9.12445 7.59684C7.48945 7.55371 6.02601 8.7434 5.7082 10.3428Z" fill="#E9B02C"/>
</g>
<defs>
<clipPath id="clip0">
<rect width="30" height="30" fill="white"/>
</clipPath>
</defs>
</svg>
