<svg width="125" height="30" viewBox="0 0 125 30" fill="none" xmlns="http://www.w3.org/2000/svg">
<rect width="124.5" height="30" fill="#CD1010"/>
<path d="M20.88 20.14C19.8907 20.14 18.9947 19.9253 18.192 19.496C17.3987 19.0573 16.7733 18.4553 16.316 17.69C15.868 16.9247 15.644 16.0613 15.644 15.1C15.644 14.1387 15.8727 13.2753 16.33 12.51C16.7873 11.7447 17.4127 11.1473 18.206 10.718C19.0087 10.2793 19.9047 10.06 20.894 10.06C21.6967 10.06 22.4293 10.2 23.092 10.48C23.7547 10.76 24.3147 11.166 24.772 11.698L23.596 12.804C22.8867 12.0387 22.014 11.656 20.978 11.656C20.306 11.656 19.704 11.8053 19.172 12.104C18.64 12.3933 18.2247 12.7993 17.926 13.322C17.6273 13.8447 17.478 14.4373 17.478 15.1C17.478 15.7627 17.6273 16.3553 17.926 16.878C18.2247 17.4007 18.64 17.8113 19.172 18.11C19.704 18.3993 20.306 18.544 20.978 18.544C22.014 18.544 22.8867 18.1567 23.596 17.382L24.772 18.502C24.3147 19.034 23.75 19.44 23.078 19.72C22.4153 20 21.6827 20.14 20.88 20.14ZM33.6158 20V15.044L31.0958 19.216H30.3398L27.8618 15.03V20H26.2658V12.524H28.0998L30.7598 17.2L33.5458 12.524H35.1838L35.1978 20H33.6158ZM40.8771 20.098C40.1211 20.098 39.4398 19.9347 38.8331 19.608C38.2265 19.2813 37.7505 18.8287 37.4051 18.25C37.0691 17.662 36.9011 16.9993 36.9011 16.262C36.9011 15.5247 37.0691 14.8667 37.4051 14.288C37.7505 13.7093 38.2265 13.2567 38.8331 12.93C39.4398 12.6033 40.1211 12.44 40.8771 12.44C41.6425 12.44 42.3285 12.6033 42.9351 12.93C43.5418 13.2567 44.0131 13.7093 44.3491 14.288C44.6945 14.8667 44.8671 15.5247 44.8671 16.262C44.8671 16.9993 44.6945 17.662 44.3491 18.25C44.0131 18.8287 43.5418 19.2813 42.9351 19.608C42.3285 19.9347 41.6425 20.098 40.8771 20.098ZM40.8771 18.6C41.5211 18.6 42.0531 18.3853 42.4731 17.956C42.8931 17.5267 43.1031 16.962 43.1031 16.262C43.1031 15.562 42.8931 14.9973 42.4731 14.568C42.0531 14.1387 41.5211 13.924 40.8771 13.924C40.2331 13.924 39.7011 14.1387 39.2811 14.568C38.8705 14.9973 38.6651 15.562 38.6651 16.262C38.6651 16.962 38.8705 17.5267 39.2811 17.956C39.7011 18.3853 40.2331 18.6 40.8771 18.6ZM52.2445 14.008H49.6265V20H47.8765V14.008H45.2445V12.524H52.2445V14.008ZM57.6579 12.44C58.3859 12.44 59.0346 12.5987 59.6039 12.916C60.1826 13.2333 60.6352 13.6813 60.9619 14.26C61.2886 14.8387 61.4519 15.506 61.4519 16.262C61.4519 17.018 61.2886 17.69 60.9619 18.278C60.6352 18.8567 60.1826 19.3047 59.6039 19.622C59.0346 19.9393 58.3859 20.098 57.6579 20.098C56.6499 20.098 55.8519 19.762 55.2639 19.09V22.716H53.5139V12.524H55.1799V13.504C55.4692 13.1493 55.8239 12.8833 56.2439 12.706C56.6732 12.5287 57.1446 12.44 57.6579 12.44ZM57.4619 18.6C58.1059 18.6 58.6332 18.3853 59.0439 17.956C59.4639 17.5267 59.6739 16.962 59.6739 16.262C59.6739 15.562 59.4639 14.9973 59.0439 14.568C58.6332 14.1387 58.1059 13.924 57.4619 13.924C57.0419 13.924 56.6639 14.022 56.3279 14.218C55.9919 14.4047 55.7259 14.6753 55.5299 15.03C55.3339 15.3847 55.2359 15.7953 55.2359 16.262C55.2359 16.7287 55.3339 17.1393 55.5299 17.494C55.7259 17.8487 55.9919 18.124 56.3279 18.32C56.6639 18.5067 57.0419 18.6 57.4619 18.6ZM70.1936 16.304C70.1936 16.4253 70.1842 16.598 70.1656 16.822H64.2996C64.4022 17.3727 64.6682 17.8113 65.0976 18.138C65.5362 18.4553 66.0776 18.614 66.7216 18.614C67.5429 18.614 68.2196 18.3433 68.7516 17.802L69.6896 18.88C69.3536 19.2813 68.9289 19.5847 68.4156 19.79C67.9022 19.9953 67.3236 20.098 66.6796 20.098C65.8582 20.098 65.1349 19.9347 64.5096 19.608C63.8842 19.2813 63.3989 18.8287 63.0536 18.25C62.7176 17.662 62.5496 16.9993 62.5496 16.262C62.5496 15.534 62.7129 14.8807 63.0396 14.302C63.3756 13.714 63.8376 13.2567 64.4256 12.93C65.0136 12.6033 65.6762 12.44 66.4136 12.44C67.1416 12.44 67.7902 12.6033 68.3596 12.93C68.9382 13.2473 69.3862 13.7 69.7036 14.288C70.0302 14.8667 70.1936 15.5387 70.1936 16.304ZM66.4136 13.84C65.8536 13.84 65.3776 14.008 64.9856 14.344C64.6029 14.6707 64.3696 15.1093 64.2856 15.66H68.5276C68.4529 15.1187 68.2242 14.68 67.8416 14.344C67.4589 14.008 66.9829 13.84 66.4136 13.84ZM77.7562 14.008H75.1382V20H73.3882V14.008H70.7562V12.524H77.7562V14.008ZM82.7776 14.988C83.7296 14.988 84.4576 15.2027 84.9616 15.632C85.4749 16.0613 85.7316 16.668 85.7316 17.452C85.7316 18.2733 85.4516 18.908 84.8916 19.356C84.3316 19.804 83.5429 20.0233 82.5256 20.014L79.0256 20V12.524H80.7756V14.974L82.7776 14.988ZM82.3716 18.726C82.8849 18.7353 83.2769 18.628 83.5476 18.404C83.8183 18.18 83.9536 17.8533 83.9536 17.424C83.9536 17.004 83.8229 16.696 83.5616 16.5C83.3003 16.304 82.9036 16.2013 82.3716 16.192L80.7756 16.178V18.712L82.3716 18.726Z" fill="white"/>
<path d="M97.3307 8.08405L108.857 15L97.3307 21.916V8.08405Z" fill="white" stroke="white" stroke-width="0.661366"/>
</svg>
