<svg width="30" height="30" viewBox="0 0 30 30" fill="none" xmlns="http://www.w3.org/2000/svg">
<path d="M6.19427 20.8516H2.67168C2.18535 20.8516 1.79102 20.4573 1.79102 19.9709L1.79102 5.88077C1.79102 5.39444 2.18529 5.00011 2.67168 5.00011H6.19421C6.68054 5.00011 7.07487 5.39439 7.07487 5.88077L7.07487 19.971C7.07487 20.4573 6.68066 20.8516 6.19427 20.8516Z" fill="#3E4347"/>
<path d="M28.1924 18.5174C28.0371 19.8836 26.761 20.8518 25.3861 20.8518H18.5204C19.1038 21.8966 19.417 24.8516 19.4031 26.0588C19.3801 28.057 17.7254 29.6582 15.7271 29.6582H15.0005C14.5137 29.6582 14.1198 29.2643 14.1198 28.7775C14.1198 26.7411 13.3268 23.0654 11.8314 21.5699C10.8248 20.5633 9.96428 20.1986 8.83594 19.6346L8.83594 6.42073C10.5635 5.84493 12.7568 5.0003 16.1 5.0003H21.8607C23.7589 5.0003 25.2372 6.75829 24.5017 8.6157C25.6223 8.92098 26.4487 9.94871 26.4487 11.1648C26.4487 11.5079 26.3824 11.8364 26.2629 12.1383C28.1513 12.6528 28.8464 14.9845 27.5357 16.4486C28.0173 16.9866 28.2828 17.7224 28.1924 18.5174Z" fill="#FFD93B"/>
</svg>
