<svg width="30" height="30" viewBox="0 0 30 30" fill="none" xmlns="http://www.w3.org/2000/svg">
<g clip-path="url(#clip0)">
<path d="M23.8062 5.2832H22.045C21.5582 5.2832 21.1643 5.67707 21.1643 6.16387C21.1643 6.6506 21.5582 7.04453 22.045 7.04453H23.8062C24.293 7.04453 24.6869 6.65066 24.6869 6.16387C24.6868 5.67707 24.293 5.2832 23.8062 5.2832Z" fill="#F4C534"/>
<path d="M14.9068 2.2476L14.0262 0.486329C13.8069 0.051154 13.2797 -0.123396 12.8445 0.0924626C12.4093 0.310021 12.233 0.838946 12.4507 1.27412L13.3313 3.03539C13.5486 3.4688 14.0749 3.64687 14.513 3.42925C14.948 3.21169 15.1243 2.68277 14.9068 2.2476Z" fill="#F4C534"/>
<path d="M20.6777 0.092452C20.2443 -0.123407 19.7137 0.0512021 19.4961 0.486318L18.6154 2.24758C18.3979 2.68276 18.5742 3.21163 19.0093 3.42924C19.4487 3.64745 19.9743 3.46733 20.1909 3.03538L21.0716 1.27411C21.2892 0.838935 21.1128 0.31001 20.6777 0.092452Z" fill="#F4C534"/>
<path d="M11.4774 5.2832H9.71611C9.22937 5.2832 8.83545 5.67707 8.83545 6.16387C8.83545 6.6506 9.22932 7.04453 9.71611 7.04453H11.4774C11.9641 7.04453 12.358 6.65066 12.358 6.16387C12.358 5.67707 11.9641 5.2832 11.4774 5.2832Z" fill="#F4C534"/>
<path d="M6.19403 14.1484H2.67143C2.18511 14.1484 1.79077 14.5427 1.79077 15.0291V29.1192C1.79077 29.6056 2.18505 29.9999 2.67143 29.9999H6.19397C6.68029 29.9999 7.07463 29.6056 7.07463 29.1192V15.029C7.07463 14.5427 6.68041 14.1484 6.19403 14.1484Z" fill="#3E4347"/>
<path d="M28.1922 16.4826C28.0368 15.1164 26.7607 14.1482 25.3858 14.1482H18.5201C19.1036 13.1034 19.4168 10.1484 19.4029 8.9412C19.3799 6.94304 17.7251 5.3418 15.7269 5.3418H15.0002C14.5135 5.3418 14.1196 5.73566 14.1196 6.22246C14.1196 8.25888 13.3266 11.9346 11.8311 13.4301C10.8245 14.4367 9.96403 14.8014 8.83569 15.3654V28.5793C10.5632 29.1551 12.7566 29.9997 16.0998 29.9997H21.8605C23.7586 29.9997 25.2369 28.2417 24.5014 26.3843C25.622 26.079 26.4484 25.0513 26.4484 23.8352C26.4484 23.4921 26.3822 23.1636 26.2627 22.8617C28.1511 22.3472 28.8462 20.0155 27.5355 18.5514C28.017 18.0134 28.2826 17.2776 28.1922 16.4826Z" fill="#FFD93B"/>
</g>
<defs>
<clipPath id="clip0">
<rect width="30" height="30" fill="white"/>
</clipPath>
</defs>
</svg>
